<?xml version="1.0" encoding="UTF-8"?>
<svg version="1.1" xmlns="http://www.w3.org/2000/svg" width="200" height="200">
<path d="M0 0 C66 0 132 0 200 0 C200 66 200 132 200 200 C134 200 68 200 0 200 C0 134 0 68 0 0 Z " fill="#FEFEFE" transform="translate(0,0)"/>
<path d="M0 0 C1.38013843 -0.02151159 2.76014294 -0.05553466 4.13964844 -0.10253906 C18.1697184 -0.57542495 18.1697184 -0.57542495 23.95532227 4.77539062 C28.49795083 9.9147204 28.92879147 13.74506721 28.74731445 20.4597168 C28.09107443 25.9575499 25.89417976 29.0493089 21.77075195 32.7800293 C16.42654064 36.43659493 10.71044978 35.7396087 4.43969727 35.81005859 C3.00422983 35.83154859 1.56889021 35.8655451 0.1340332 35.91259766 C-14.23892146 36.37918734 -14.23892146 36.37918734 -20.21704102 30.96459961 C-24.59401596 26.04377667 -25.14701719 21.48926062 -24.95581055 15.0925293 C-24.26490425 9.81093448 -21.95353344 6.65558649 -18.04174805 3.0300293 C-12.54066105 -0.63736203 -6.39632545 0.07478874 0 0 Z " fill="#EE3F3C" transform="translate(102.604248046875,81.594970703125)"/>
<path d="M0 0 C0.33 0 0.66 0 1 0 C1 13.86 1 27.72 1 42 C-17.81 42 -36.62 42 -56 42 C-52.75387099 38.75387099 -49.60100228 36.15736598 -45.875 33.5625 C-44.61552157 32.67369244 -43.35642559 31.78434276 -42.09765625 30.89453125 C-41.43137207 30.4248291 -40.76508789 29.95512695 -40.07861328 29.47119141 C-36.47381364 26.91980279 -32.89262916 24.33584441 -29.3125 21.75 C-28.57056396 21.21415283 -27.82862793 20.67830566 -27.06420898 20.1262207 C-21.16901978 15.86080031 -15.29788037 11.56309803 -9.4375 7.25 C-8.60968018 6.64124023 -7.78186035 6.03248047 -6.92895508 5.40527344 C-6.16736084 4.84356445 -5.4057666 4.28185547 -4.62109375 3.703125 C-3.60680298 2.95530762 -3.60680298 2.95530762 -2.57202148 2.19238281 C-1.04473663 1.090088 -1.04473663 1.090088 0 0 Z " fill="#4B2637" transform="translate(199,158)"/>
<path d="M0 0 C3.7125 -0.04125 7.425 -0.0825 11.25 -0.125 C12.99651855 -0.15231201 12.99651855 -0.15231201 14.77832031 -0.18017578 C15.70225586 -0.1851709 16.62619141 -0.19016602 17.578125 -0.1953125 C18.52075195 -0.20578613 19.46337891 -0.21625977 20.43457031 -0.22705078 C23.1655208 0.01464925 24.71921031 0.49921793 27 2 C29.45416273 5.6812441 29.59384154 8.72261963 29 13 C27.5 15.5 27.5 15.5 26 17 C26.66 17.474375 27.32 17.94875 28 18.4375 C30.55928402 21.71658265 30.5803429 23.81279905 30.38671875 27.87890625 C30 30 30 30 28.3125 32.4375 C24.26282688 35.17376562 20.79513796 36.25515507 15.91796875 36.1953125 C14.65762817 36.18781982 14.65762817 36.18781982 13.37182617 36.18017578 C12.32099854 36.16196777 11.2701709 36.14375977 10.1875 36.125 C6.825625 36.08375 3.46375 36.0425 0 36 C0 24.12 0 12.24 0 0 Z " fill="#EF4C4A" transform="translate(45,82)"/>
<path d="M0 0 C4.86108919 2.29796944 7.70203056 5.13891081 10 10 C10.78954684 15.40597889 10.72016927 19.6093283 8.1875 24.5 C7.1046875 25.7375 7.1046875 25.7375 6 27 C5.484375 27.598125 4.96875 28.19625 4.4375 28.8125 C0.82148241 31.79964497 -3.83615492 31.33392453 -8.2734375 31.26953125 C-12.23134646 30.87827664 -14.16092913 29.76982524 -17 27 C-20.66178038 21.81152121 -21.80975839 17.2756275 -21 11 C-16.17327943 1.53220195 -10.34834321 -1.6501829 0 0 Z " fill="#FEFCFC" transform="translate(119,84)"/>
<path d="M0 0 C2.87557703 -0.08138426 5.74882262 -0.14067851 8.625 -0.1875 C9.43324219 -0.21263672 10.24148437 -0.23777344 11.07421875 -0.26367188 C16.11503153 -0.3251452 19.69534712 0.06040188 24 3 C25.1875 6.375 25.1875 6.375 25 10 C23.1328125 12.70703125 23.1328125 12.70703125 20 15 C16.53942499 15.6029314 13.18662041 15.47323698 9.6875 15.3125 C8.75615234 15.28994141 7.82480469 15.26738281 6.86523438 15.24414062 C4.57612873 15.18544561 2.28785439 15.09577065 0 15 C0 10.05 0 5.1 0 0 Z " fill="#FEFAFA" transform="translate(48,100)"/>
<path d="M0 0 C2.89640118 -0.08120751 5.79050912 -0.14059421 8.6875 -0.1875 C9.50412109 -0.21263672 10.32074219 -0.23777344 11.16210938 -0.26367188 C15.97545043 -0.32213351 19.05803722 -0.08670459 23 3 C23.33 3.33 23.66 3.66 24 4 C23.875 7.375 23.875 7.375 23 11 C18.64121794 14.78911945 14.14068439 14.3553565 8.6875 14.1875 C7.85154297 14.17396484 7.01558594 14.16042969 6.15429688 14.14648438 C4.10258502 14.11131217 2.05120725 14.05751048 0 14 C0 9.38 0 4.76 0 0 Z " fill="#FEF6F6" transform="translate(48,84)"/>
<path d="M0 0 C3 2.1875 3 2.1875 5 5.1875 C5.125 7.875 5.125 7.875 5 10.1875 C4.01 10.1875 3.02 10.1875 2 10.1875 C1.7525 9.23875 1.505 8.29 1.25 7.3125 C0.33352862 4.18593806 0.33352862 4.18593806 -1.703125 3.01171875 C-4.5634735 1.98530118 -6.96347255 1.88638698 -10 1.875 C-11.03125 1.85824219 -12.0625 1.84148437 -13.125 1.82421875 C-16.34558341 2.23116747 -17.71555657 2.91388332 -20 5.1875 C-20.50014953 7.73008463 -20.50014953 7.73008463 -20 10.1875 C-16.60364884 13.58385116 -12.14536027 14.17870974 -7.5625 15.125 C2.78289474 17.36184211 2.78289474 17.36184211 6 22.1875 C6.49054578 25.94835101 6.31266471 27.67797233 4.3125 30.9375 C0.33835812 34.80423264 -3.4988982 35.47900154 -8.9375 35.5 C-14.726099 35.39333049 -18.615043 34.572457 -22.8125 30.375 C-24.27918267 27.67321614 -24.65492025 25.2242018 -25 22.1875 C-24.01 22.1875 -23.02 22.1875 -22 22.1875 C-21.566875 23.30125 -21.13375 24.415 -20.6875 25.5625 C-19.30088881 29.36262334 -19.30088881 29.36262334 -16 31.1875 C-12.70555292 31.54438378 -12.70555292 31.54438378 -9.0625 31.5 C-7.83660156 31.51675781 -6.61070312 31.53351563 -5.34765625 31.55078125 C-1.83194005 31.16926246 -0.41188894 30.73008243 2 28.1875 C2.58345476 25.14496492 2.58345476 25.14496492 2 22.1875 C-0.67353279 20.40514481 -2.08626318 19.77018608 -5.08984375 19.0390625 C-5.87423828 18.83796875 -6.65863281 18.636875 -7.46679688 18.4296875 C-9.10843114 18.01960337 -10.75167511 17.61590807 -12.39648438 17.21875 C-16.9039093 16.0502953 -20.19395521 15.17268063 -23 11.1875 C-23.78185511 8.42674264 -23.66907763 5.97246417 -23 3.1875 C-17.38146209 -2.8992494 -7.23992262 -3.97664513 0 0 Z " fill="#EE4542" transform="translate(159,82.8125)"/>
<path d="M0 0 C10.23 0 20.46 0 31 0 C31 1.32 31 2.64 31 4 C26.71 4 22.42 4 18 4 C18 14.56 18 25.12 18 36 C16.35 36 14.7 36 13 36 C13 25.44 13 14.88 13 4 C8.71 4 4.42 4 0 4 C0 2.68 0 1.36 0 0 Z " fill="#606164" transform="translate(10,82)"/>
<path d="M0 0 C1.65 0 3.3 0 5 0 C5 11.88 5 23.76 5 36 C3.35 36 1.7 36 0 36 C0 24.12 0 12.24 0 0 Z " fill="#626467" transform="translate(2,82)"/>
<path d="M0 0 C9.57 0 19.14 0 29 0 C29 0.66 29 1.32 29 2 C24.71 2 20.42 2 16 2 C16 13.22 16 24.44 16 36 C15.01 36 14.02 36 13 36 C13 24.78 13 13.56 13 2 C8.71 2 4.42 2 0 2 C0 1.34 0 0.68 0 0 Z " fill="#EF4845" transform="translate(169,82)"/>
<path d="M0 0 C0.99 0 1.98 0 3 0 C3.433125 1.11375 3.86625 2.2275 4.3125 3.375 C5.69911119 7.17512334 5.69911119 7.17512334 9 9 C12.29444708 9.35688378 12.29444708 9.35688378 15.9375 9.3125 C17.77634766 9.33763672 17.77634766 9.33763672 19.65234375 9.36328125 C23.17821525 8.98066042 24.51430614 8.45588938 27 6 C28.13350534 3.98330173 28.13350534 3.98330173 29 2 C29.66 1.34 30.32 0.68 31 0 C31.34338883 3.6914299 31.27811415 5.54677695 29.3125 8.75 C25.33835812 12.61673264 21.5011018 13.29150154 16.0625 13.3125 C10.273901 13.20583049 6.384957 12.384957 2.1875 8.1875 C0.72081733 5.48571614 0.34507975 3.0367018 0 0 Z " fill="#EF4E4C" transform="translate(134,105)"/>
<path d="M0 0 C3.37758771 1.18672001 5.74844294 2.17908368 8 5 C8.6228087 8.04671283 8.50943248 10.93786782 8 14 C5.80168636 17.03215675 4.55036806 17.81654398 1 19 C-0.70016844 19.08178114 -2.40336297 19.10749501 -4.10546875 19.09765625 C-5.08837891 19.09443359 -6.07128906 19.09121094 -7.08398438 19.08789062 C-8.10814453 19.07951172 -9.13230469 19.07113281 -10.1875 19.0625 C-11.22326172 19.05798828 -12.25902344 19.05347656 -13.32617188 19.04882812 C-15.8841392 19.03704026 -18.44207686 19.01910482 -21 19 C-21 13.39 -21 7.78 -21 2 C-20.67 2 -20.34 2 -20 2 C-20 7.28 -20 12.56 -20 18 C-17.31106733 17.91228454 -14.62514692 17.80532075 -11.9375 17.6875 C-10.80924805 17.65366211 -10.80924805 17.65366211 -9.65820312 17.61914062 C-4.46933781 17.3720518 -0.56893872 16.54224995 4 14 C5.32548832 10.55663226 5.32548832 10.55663226 5 7 C3.23468433 4.3520265 2.06900421 4.0230014 -1 3 C-0.67 2.01 -0.34 1.02 0 0 Z " fill="#ED3330" transform="translate(67,98)"/>
<path d="M0 0 C3 2.1875 3 2.1875 5 5.1875 C5.125 7.875 5.125 7.875 5 10.1875 C4.01 10.1875 3.02 10.1875 2 10.1875 C1.7525 9.23875 1.505 8.29 1.25 7.3125 C0.33367052 4.18494599 0.33367052 4.18494599 -1.70703125 3.01171875 C-4.54837065 1.99038551 -6.920162 1.8864149 -9.9375 1.875 C-10.95714844 1.85824219 -11.97679687 1.84148437 -13.02734375 1.82421875 C-16.38094859 2.23405482 -18.20920334 3.34800098 -21 5.1875 C-21.66 5.1875 -22.32 5.1875 -23 5.1875 C-21.9967047 1.95465959 -20.97398572 1.172325 -18 -0.5625 C-12.0698903 -2.79864553 -5.64883932 -3.05978796 0 0 Z " fill="#EF4D4A" transform="translate(159,82.8125)"/>
<path d="M0 0 C4.6147882 4.41414523 4.6147882 4.41414523 5.875 7.75 C5.81256518 11.13188626 5.41277499 14.4132034 4.875 17.75 C4.545 17.75 4.215 17.75 3.875 17.75 C3.84921875 17.16992188 3.8234375 16.58984375 3.796875 15.9921875 C3.40057473 10.53405202 2.54845809 7.03570111 -1.125 2.75 C-5.21771523 -0.54690949 -9.03596969 -0.81872624 -14.125 -1.25 C-14.125 -1.58 -14.125 -1.91 -14.125 -2.25 C-8.18962325 -3.49228816 -5.00802642 -3.60577903 0 0 Z " fill="#EF4E4B" transform="translate(125.125,85.25)"/>
<path d="M0 0 C2.875 -0.1875 2.875 -0.1875 6 0 C8.49537141 3.74305712 8.78944072 6.59381924 8 11 C6 13 6 13 4 14 C3.34 13.34 2.68 12.68 2 12 C2.495 11.608125 2.99 11.21625 3.5 10.8125 C5.18561178 9.06462771 5.18561178 9.06462771 5.5 6.5625 C4.79971604 2.97354471 2.94700354 1.98922739 0 0 Z " fill="#EE3E3B" transform="translate(66,84)"/>
<path d="M0 0 C0.33 0 0.66 0 1 0 C1.268125 1.11375 1.53625 2.2275 1.8125 3.375 C2.65809019 7.21840951 2.65809019 7.21840951 6 9 C6 9.66 6 10.32 6 11 C3.625 10.6875 3.625 10.6875 1 10 C-1.29404844 6.55892734 -1.26293056 5.03160191 -1 1 C-0.67 0.67 -0.34 0.34 0 0 Z " fill="#ED3835" transform="translate(137,87)"/>
<path d="M0 0 C3.63 0.66 7.26 1.32 11 2 C11 2.33 11 2.66 11 3 C2.42857143 4.42857143 2.42857143 4.42857143 -1 2 C-0.67 1.34 -0.34 0.68 0 0 Z " fill="#EF4D4A" transform="translate(143,96)"/>
<path d="M0 0 C1.9375 0.375 1.9375 0.375 4 1 C5.35439668 3.70879335 5.06501451 6.00933268 5 9 C4.34 8.01 3.68 7.02 3 6 C2.195625 4.9790625 2.195625 4.9790625 1.375 3.9375 C0 2 0 2 0 0 Z " fill="#ED3532" transform="translate(159,101)"/>
<path d="M0 0 C0.66 0 1.32 0 2 0 C2.92844389 4.33273814 2.92844389 7.66726186 2 12 C1.67 12 1.34 12 1 12 C0.67 8.04 0.34 4.08 0 0 Z " fill="#F15A57" transform="translate(128,91)"/>
<path d="M0 0 C-4.68493876 2.48887372 -7.9444214 1.85687773 -13 1 C-13 0.67 -13 0.34 -13 0 C-11.58456585 -0.19658808 -10.16755969 -0.38187546 -8.75 -0.5625 C-7.96109375 -0.66691406 -7.1721875 -0.77132812 -6.359375 -0.87890625 C-3.99467126 -1.00027349 -2.2488963 -0.69633257 0 0 Z " fill="#F26B68" transform="translate(123,115)"/>
</svg>
